<svg width="914" height="400" fill="none" xmlns="http://www.w3.org/2000/svg"><style>#CL0 {fill: #333;}@media (prefers-color-scheme: dark) {#CL0 {fill: #CCC;}}</style><path d="M419.255 185.55c.317.136.476.567.476 1.292 0 .453-.057.986-.17 1.598a28.311 28.311 0 0 0-.204 1.19 90.32 90.32 0 0 1-.68 4.692 190.924 190.924 0 0 1-.782 4.59 26.67 26.67 0 0 1-.85 3.264 14.74 14.74 0 0 1-1.734 3.604c-.725 1.088-1.598 1.745-2.618 1.972a2.902 2.902 0 0 1-.476.068c-.657 0-1.156-.295-1.496-.884a5.114 5.114 0 0 1-.646-1.87 37.069 37.069 0 0 1-.238-2.482c-.431 1.315-.861 2.425-1.292 3.332a7.566 7.566 0 0 1-1.734 2.312c-.612.544-1.145.816-1.598.816-.771 0-1.258-.805-1.462-2.414-.181-1.428-.385-3.57-.612-6.426-.272-3.332-.521-5.791-.748-7.378-.045-.34-.159-.895-.34-1.666a28.578 28.578 0 0 1-.374-1.632 9.745 9.745 0 0 1-.136-1.53c0-.431.057-.85.17-1.258a4.295 4.295 0 0 1 .952-1.632c.476-.521.929-.782 1.36-.782.499 0 .839.351 1.02 1.054.317 1.156.623 2.731.918 4.726.045.272.102.669.17 1.19.091.521.17.963.238 1.326.453 2.38.793 4.76 1.02 7.14l.272-1.36a37.78 37.78 0 0 1 .51-2.482 7.47 7.47 0 0 1 .782-1.802 8.698 8.698 0 0 1 1.156-1.53c.431-.476.873-.714 1.326-.714.453 0 .805.261 1.054.782.272.499.453 1.009.544 1.53.091.499.181 1.167.272 2.006.045.453.091 1.133.136 2.04.091 1.677.249 3.015.476 4.012.408-1.632.737-3.853.986-6.664.249-2.176.385-3.343.408-3.502.159-1.111.295-1.949.408-2.516.136-.589.34-1.167.612-1.734a7.466 7.466 0 0 1 1.122-1.564c.476-.544.941-.816 1.394-.816.136 0 .272.034.408.102Zm15.689 20.536c.34.113.51.317.51.612 0 .363-.216.759-.646 1.19-.476.476-1.088.714-1.836.714-.363 0-.669-.045-.918-.136-1.202-.385-2.29-.578-3.264-.578-1.7 0-3.434.544-5.202 1.632a4.057 4.057 0 0 1-1.088.51c-.408.113-.794.17-1.156.17-.34 0-.612-.057-.816-.17-.204-.136-.306-.34-.306-.612 0-.159.022-.295.068-.408.657-1.836 1.178-3.491 1.564-4.964.408-1.473.68-2.969.816-4.488.204-2.04.306-3.536.306-4.488 0-2.516-.488-4.443-1.462-5.78-.114-.136-.17-.317-.17-.544 0-.453.317-.873.952-1.258.634-.408 1.258-.612 1.87-.612.408 0 .702.091.884.272.294.113.487.295.578.544.566 1.496 1.348 2.765 2.346 3.808.997 1.02 2.176 1.53 3.536 1.53.249 0 .623-.045 1.122-.136.317-.045.521-.068.612-.068.385 0 .668.091.85.272.204.159.306.385.306.68 0 .317-.136.635-.408.952-.25.317-.59.544-1.02.68a8.595 8.595 0 0 1-2.788.476 7.79 7.79 0 0 1-3.196-.68c-.046 1.269-.102 2.221-.17 2.856l-.238 2.142a52.793 52.793 0 0 1 2.652-.408l.476-.034c.906 0 1.36.306 1.36.918 0 .408-.227.771-.68 1.088a3.617 3.617 0 0 1-1.394.612c-.703.136-1.666.283-2.89.442a45.274 45.274 0 0 1-.816 3.128 13.238 13.238 0 0 1 4.556-.816c1.7 0 3.4.317 5.1.952Zm10.318-3.502c0-.34-.102-.657-.306-.952a2.162 2.162 0 0 0-.816-.748 3.016 3.016 0 0 0-1.428-.34c-.227 0-.59.045-1.088.136a94.693 94.693 0 0 0-.34 5.746c1.11-.544 2.051-1.156 2.822-1.836.77-.703 1.156-1.371 1.156-2.006Zm1.564-4.318a3.827 3.827 0 0 1 1.768 1.326c.476.589.714 1.247.714 1.972 0 .453-.091.895-.272 1.326-.408.929-1.066 1.779-1.972 2.55-.907.771-1.984 1.519-3.23 2.244-2.652 1.564-4.987 2.391-7.004 2.482-.363.023-.669-.057-.918-.238a.84.84 0 0 1-.374-.714c0-.34.136-.646.408-.918a3.247 3.247 0 0 1 1.054-.68v-.102c0-4.465.498-8.965 1.496-13.498.09-.453.487-.85 1.19-1.19.702-.363 1.371-.544 2.006-.544.362 0 .634.079.816.238.204.136.272.351.204.646a40.268 40.268 0 0 0-.646 3.502c.838-.453 1.53-1.02 2.074-1.7.566-.68.85-1.405.85-2.176 0-1.065-.782-1.598-2.346-1.598-.862 0-1.666.136-2.414.408-.476.159-.896.238-1.258.238-.703 0-1.054-.261-1.054-.782 0-.476.408-.929 1.224-1.36.702-.363 1.552-.657 2.55-.884a12.046 12.046 0 0 1 2.924-.374c1.314 0 2.368.272 3.162.816.816.521 1.224 1.371 1.224 2.55 0 1.111-.386 2.199-1.156 3.264-.771 1.043-1.757 1.972-2.958 2.788.68.045 1.326.181 1.938.408Zm16.802 3.672c.385 2.833.668 4.817.85 5.95.09.567-.159 1.065-.748 1.496-.59.431-1.213.646-1.87.646-.386 0-.703-.079-.952-.238-.25-.181-.397-.453-.442-.816l-.272-2.21c-.318-2.493-.578-4.363-.782-5.61-.114-.725-.272-1.326-.476-1.802a2.178 2.178 0 0 0-.986-1.122 2.412 2.412 0 0 0-1.02-.204c-.476 0-1.009.079-1.598.238-.408 3.4-1.077 6.879-2.006 10.438-.114.476-.522.895-1.224 1.258-.68.34-1.338.51-1.972.51-.408 0-.714-.068-.918-.204-.204-.159-.261-.397-.17-.714a72.175 72.175 0 0 0 2.142-10.744c-.454 0-.85-.079-1.19-.238-.34-.181-.51-.408-.51-.68 0-.317.226-.635.68-.952l1.326-.952c.181-2.017.272-4.307.272-6.868 0-1.451-.034-2.901-.102-4.352-.023-.453.272-.861.884-1.224s1.246-.544 1.904-.544c.362 0 .657.079.884.238.249.136.385.363.408.68.09 1.541.136 3.253.136 5.134 0 1.632-.023 2.845-.068 3.638a45.103 45.103 0 0 0 2.38-2.278l1.02-.986c.317-.295.68-.533 1.088-.714a2.716 2.716 0 0 1 1.224-.306c.249 0 .521.068.816.204.294.113.442.283.442.51a.588.588 0 0 1-.136.374c-1.383 1.949-3.4 3.955-6.052 6.018.748-.159 1.416-.238 2.006-.238 1.654 0 2.89.544 3.706 1.632.362.476.612.997.748 1.564.158.544.272 1.088.34 1.632.068.544.113.918.136 1.122l.102.714Z" id="CL0"/><path d="m471.974 199.354-.272.68 2.38 2.006-.238-.986c-.159-.635-.476-1.983-.952-4.046l-.918 2.346Zm3.876-9.928a87.865 87.865 0 0 0 1.19 6.018 379.775 379.775 0 0 0 1.802 6.97 513.17 513.17 0 0 1 1.292 4.964c.022.068.034.17.034.306 0 .544-.306 1.02-.918 1.428-.612.385-1.247.578-1.904.578-.544 0-.964-.147-1.258-.442a29.09 29.09 0 0 0-2.074-2.006 75.356 75.356 0 0 0-2.856-2.346l-1.122-.918c-.952 2.04-1.689 3.547-2.21 4.522-.159.34-.578.657-1.258.952-.658.272-1.27.408-1.836.408-.635 0-.952-.204-.952-.612 0-.113.034-.249.102-.408.68-1.677 1.484-3.604 2.414-5.78l.714-1.734-.85-.85a.748.748 0 0 1-.238-.544c0-.385.249-.748.748-1.088a4.038 4.038 0 0 1 1.666-.714 152.126 152.126 0 0 0 3.06-7.956c.09-.317.374-.589.85-.816a4.81 4.81 0 0 1 1.564-.476c.385-.113.714-.17.986-.17.634 0 .986.238 1.054.714Zm15.278 12.988a9.548 9.548 0 0 0 .782-3.774c0-1.02-.182-1.949-.544-2.788a4.682 4.682 0 0 0-1.632-2.108c-.499-.363-.975-.544-1.428-.544-.182 0-.408.045-.68.136a.481.481 0 0 1 .306.476c0 .136-.046.295-.136.476a14.65 14.65 0 0 0-1.224 3.264 14.107 14.107 0 0 0-.442 3.502c0 1.36.204 2.652.612 3.876.272.68.555 1.213.85 1.598.136.159.272.272.408.34.657-.453 1.246-1.088 1.768-1.904.544-.816.997-1.666 1.36-2.55Zm-.476-11.934c1.11.227 2.062.714 2.856 1.462a7.246 7.246 0 0 1 1.802 2.72 8.881 8.881 0 0 1 .612 3.264c0 1.337-.261 2.709-.782 4.114a14.76 14.76 0 0 1-2.142 3.876c-.907 1.179-1.916 2.108-3.026 2.788-1.043.635-2.063.952-3.06.952-.998 0-1.87-.306-2.618-.918-.748-.612-1.292-1.496-1.632-2.652-.386-1.179-.578-2.505-.578-3.978 0-.884.068-1.745.204-2.584-.159.045-.397.068-.714.068-.771 0-1.156-.261-1.156-.782 0-.181.022-.329.068-.442.77-2.153 1.926-4.023 3.468-5.61 1.564-1.609 3.354-2.414 5.372-2.414.294 0 .736.045 1.326.136Zm17.987 4.352c-.431-.363-1.179-.839-2.244-1.428-1.043-.612-1.848-.918-2.414-.918-.454 0-.68.227-.68.68 0 .159.056.431.17.816.158.521.51 1.02 1.054 1.496a31.06 31.06 0 0 0 2.142 1.598c.725.499 1.19.839 1.394 1.02.997.861 1.79 1.587 2.38 2.176a9.837 9.837 0 0 1 1.598 2.04c.498.771.748 1.564.748 2.38 0 .544-.136 1.111-.408 1.7-.522 1.065-1.383 1.881-2.584 2.448a8.596 8.596 0 0 1-3.774.85c-.454 0-.907-.034-1.36-.102-3.083-.521-5.928-2.573-8.534-6.154a1.097 1.097 0 0 1-.204-.612c0-.499.328-.952.986-1.36.68-.431 1.348-.646 2.006-.646.498 0 .861.147 1.088.442 1.405 1.904 2.788 3.298 4.148 4.182 1.246.816 2.3 1.224 3.162 1.224.702 0 1.054-.306 1.054-.918 0-.431-.17-.963-.51-1.598a7.844 7.844 0 0 0-1.326-1.734 32.758 32.758 0 0 0-2.074-1.87l-.918-.782c-.091-.091-.51-.419-1.258-.986a21.892 21.892 0 0 1-1.564-1.258 6.252 6.252 0 0 1-1.088-1.258c-.386-.612-.578-1.247-.578-1.904 0-1.02.43-1.949 1.292-2.788.884-.861 1.892-1.451 3.026-1.768a7.656 7.656 0 0 1 2.074-.306 7.81 7.81 0 0 1 3.536.85c1.156.567 2.323 1.349 3.502 2.346.204.159.306.351.306.578 0 .431-.352.85-1.054 1.258-.703.408-1.394.612-2.074.612-.454 0-.794-.102-1.02-.306Z" id="CL0"/><path d="M477 206.38a.5.5 0 0 1 1 0v10a.5.5 0 0 1-1 0v-10Zm-27 1.12a.5.5 0 0 1 1 0v6a.5.5 0 0 1-1 0v-6Zm11-2a.5.5 0 0 1 1 0v6a.5.5 0 0 1-1 0v-6Zm7-2a.5.5 0 0 1 1 0v6a.5.5 0 0 1-1 0v-6Zm-20-2.12a.5.5 0 0 1 1 0v6a.5.5 0 0 1-1 0v-6Zm-12 8a.5.5 0 0 1 1 0v6a.5.5 0 0 1-1 0v-6Zm48-2a.5.5 0 0 1 1 0v3a.5.5 0 0 1-1 0v-3Zm27-1a.5.5 0 0 1 1 0v7a.5.5 0 0 1-1 0v-7Zm-14-4a.5.5 0 0 1 1 0v5a.5.5 0 0 1-1 0v-5Zm-64 5.12a.5.5 0 0 1 1 0v3a.5.5 0 0 1-1 0v-3Zm-1-13a.5.5 0 0 1 1 0v3a.5.5 0 0 1-1 0v-3Zm-11 15a.5.5 0 0 1 1 0v8a.5.5 0 0 1-1 0v-8Zm-16-4.12a.5.5 0 0 1 1 0v7a.5.5 0 0 1-1 0v-7Zm13-15a.5.5 0 0 1 1 0v12a.5.5 0 0 1-1 0v-12Z" id="CL0"/></svg>